# xmcd
#
# Track frame offsets: 
#        150
#        26525
#        48712
#        58047
#        76982
#        81047
#        97401
#        122161
#        141361
#        166203
#        183058
#
# Disc length: 2520 seconds
#
# Revision: 0
# Processed by: cddbd v1.5.2PL0 Copyright (c) Steve Scherf et al.
# Submitted via: ExactAudioCopy v1.0b3
#
DISCID=9209d60b
DTITLE=Corrosion Of Conformity - IX
DYEAR=2014
DGENRE=Crossover
TTITLE0=Brand New Sleep
TTITLE1=Elphyn
TTITLE2=Kill Denmark Vesey
TTITLE3=The Nectar
TTITLE4=Interlude
TTITLE5=On Your Way
TTITLE6=Trucker
TTITLE7=The Hanged Man
TTITLE8=Tarquinius Superbus
TTITLE9=Who You Need To Blame
TTITLE10=The Nectar Reprised
EXTD=
EXTT0=
EXTT1=
EXTT2=
EXTT3=
EXTT4=
EXTT5=
EXTT6=
EXTT7=
EXTT8=
EXTT9=
EXTT10=
PLAYORDER=
